<?xml version="1.0" standalone="no"?>
<!DOCTYPE svg PUBLIC "-//W3C//DTD SVG 20010904//EN"
 "http://www.w3.org/TR/2001/REC-SVG-20010904/DTD/svg10.dtd">
<svg version="1.0" xmlns="http://www.w3.org/2000/svg"
 width="100.000000pt" height="100.000000pt" viewBox="0 0 100.000000 100.000000"
 preserveAspectRatio="xMidYMid meet">
<metadata>
Created by potrace 1.14, written by Peter Selinger 2001-2017
</metadata>
<g transform="translate(0.000000,100.000000) scale(0.100000,-0.100000)"
fill="#000000" stroke="none">
<path d="M747 712 c-29 -14 -57 -59 -57 -92 0 -42 31 -93 91 -148 69 -65 82
-102 43 -123 -20 -10 -27 -10 -44 6 -11 10 -20 26 -20 36 0 14 -6 17 -27 13
-54 -9 -55 -10 -38 -51 23 -56 48 -73 110 -73 46 0 58 4 84 31 59 58 33 149
-62 222 -20 15 -44 41 -52 57 -13 26 -13 30 3 50 16 19 22 21 40 11 12 -6 22
-19 22 -27 0 -12 9 -14 38 -11 39 4 41 9 21 58 -18 47 -96 68 -152 41z"/>
<path d="M470 500 l0 -219 50 2 c28 1 50 0 50 -3 0 -3 21 -3 48 0 45 5 47 6
49 38 l1 32 -59 0 -59 0 -1 33 c0 17 0 100 0 182 l0 150 -39 2 -40 3 0 -220z"/>
<path d="M334 593 c-10 -40 -11 -299 -1 -309 19 -19 25 23 24 176 0 93 -4 170
-7 170 -3 0 -10 -17 -16 -37z"/>
<path d="M292 489 c-26 -42 -14 -234 13 -207 3 3 4 56 3 117 -3 97 -5 109 -16
90z"/>
<path d="M243 418 c-5 -7 -10 -41 -11 -76 -1 -54 1 -63 15 -60 13 2 16 16 15
72 -1 74 -4 83 -19 64z"/>
<path d="M194 362 c-6 -4 -10 -22 -8 -40 5 -62 25 -57 28 7 2 42 0 46 -20 33z"/>
<path d="M148 330 c-18 -11 -13 -53 6 -47 8 3 20 59 12 57 -1 0 -8 -5 -18 -10z"/>
<path d="M96 303 c-11 -11 -6 -23 9 -23 8 0 15 4 15 9 0 13 -16 22 -24 14z"/>
</g>
</svg>
