<?xml version="1.0" encoding="utf-8"?>
<!-- Generator: Adobe Illustrator 25.2.3, SVG Export Plug-In . SVG Version: 6.00 Build 0)  -->
<svg version="1.1" id="_x2014_ÎÓÈ_x5F_1" xmlns="http://www.w3.org/2000/svg" xmlns:xlink="http://www.w3.org/1999/xlink"
	 x="0px" y="0px" viewBox="0 0 565.1 298.1" style="enable-background:new 0 0 565.1 298.1;" xml:space="preserve">
<style type="text/css">
	.st0{fill:#FFFFFF;}
	.st1{fill:#144C89;}
	.st2{fill:#E00D13;}
</style>
<g>
	<rect class="st0" width="565.1" height="298.1"/>
	<g>
		<g>
			<rect class="st1" width="226" height="160.4"/>
		</g>
	</g>
	<g>
		<g>
			<rect x="226" class="st2" width="339.1" height="22.7"/>
		</g>
	</g>
	<g>
		<g>
			<rect x="226" y="45.9" class="st2" width="339.1" height="22.7"/>
		</g>
	</g>
	<g>
		<g>
			<rect x="226" y="91.8" class="st2" width="339.1" height="22.7"/>
		</g>
	</g>
	<g>
		<g>
			<rect x="226" y="137.7" class="st2" width="339.1" height="22.7"/>
		</g>
	</g>
	<g>
		<g>
			<rect y="183.6" class="st2" width="565.1" height="22.7"/>
		</g>
	</g>
	<g>
		<g>
			<rect y="229.5" class="st2" width="565.1" height="22.7"/>
		</g>
	</g>
	<g>
		<g>
			<rect y="275.4" class="st2" width="565.1" height="22.7"/>
		</g>
	</g>
	<g>
		<g>
			<polygon class="st0" points="19.3,5.8 21.5,12.6 28.7,12.6 22.9,16.9 25.1,23.7 19.3,19.5 13.4,23.7 15.7,16.9 9.8,12.6 
				17.1,12.6 			"/>
		</g>
	</g>
	<g>
		<g>
			<polygon class="st0" points="56.9,5.8 59.1,12.6 66.3,12.6 60.5,16.9 62.7,23.7 56.9,19.5 51,23.7 53.3,16.9 47.4,12.6 
				54.6,12.6 			"/>
		</g>
	</g>
	<g>
		<g>
			<polygon class="st0" points="38,21.9 40.2,28.8 47.4,28.8 41.6,33 43.8,39.9 38,35.7 32.1,39.9 34.4,33 28.5,28.8 35.7,28.8 			
				"/>
		</g>
	</g>
	<g>
		<g>
			<polygon class="st0" points="94.3,5.8 96.6,12.6 103.8,12.6 97.9,16.9 100.2,23.7 94.3,19.5 88.5,23.7 90.7,16.9 84.9,12.6 
				92.1,12.6 			"/>
		</g>
	</g>
	<g>
		<g>
			<polygon class="st0" points="75.4,21.9 77.7,28.8 84.9,28.8 79,33 81.3,39.9 75.4,35.7 69.6,39.9 71.8,33 66,28.8 73.2,28.8 			
				"/>
		</g>
	</g>
	<g>
		<g>
			<polygon class="st0" points="131.8,5.8 134,12.6 141.2,12.6 135.4,16.9 137.6,23.7 131.8,19.5 125.9,23.7 128.2,16.9 122.3,12.6 
				129.5,12.6 			"/>
		</g>
	</g>
	<g>
		<g>
			<polygon class="st0" points="112.9,21.9 115.1,28.8 122.3,28.8 116.5,33 118.7,39.9 112.9,35.7 107,39.9 109.3,33 103.4,28.8 
				110.6,28.8 			"/>
		</g>
	</g>
	<g>
		<g>
			<polygon class="st0" points="169.2,5.8 171.4,12.6 178.7,12.6 172.8,16.9 175,23.7 169.2,19.5 163.4,23.7 165.6,16.9 159.8,12.6 
				167,12.6 			"/>
		</g>
	</g>
	<g>
		<g>
			<polygon class="st0" points="150.3,21.9 152.5,28.8 159.8,28.8 153.9,33 156.2,39.9 150.3,35.7 144.5,39.9 146.7,33 140.9,28.8 
				148.1,28.8 			"/>
		</g>
	</g>
	<g>
		<g>
			<polygon class="st0" points="206.7,5.8 208.9,12.6 216.1,12.6 210.3,16.9 212.5,23.7 206.7,19.5 200.8,23.7 203,16.9 197.2,12.6 
				204.4,12.6 			"/>
		</g>
	</g>
	<g>
		<g>
			<polygon class="st0" points="187.8,21.9 190,28.8 197.2,28.8 191.4,33 193.6,39.9 187.8,35.7 181.9,39.9 184.1,33 178.3,28.8 
				185.5,28.8 			"/>
		</g>
	</g>
	<g>
		<g>
			<polygon class="st0" points="19.3,38.1 21.5,45 28.7,45 22.9,49.2 25.1,56.1 19.3,51.8 13.4,56.1 15.7,49.2 9.8,45 17.1,45 			
				"/>
		</g>
	</g>
	<g>
		<g>
			<polygon class="st0" points="56.9,38.1 59.1,45 66.3,45 60.5,49.2 62.7,56.1 56.9,51.8 51,56.1 53.3,49.2 47.4,45 54.6,45 			"/>
		</g>
	</g>
	<g>
		<g>
			<polygon class="st0" points="38,54.3 40.2,61.1 47.4,61.1 41.6,65.4 43.8,72.2 38,68 32.1,72.2 34.4,65.4 28.5,61.1 35.7,61.1 
							"/>
		</g>
	</g>
	<g>
		<g>
			<polygon class="st0" points="94.3,38.1 96.6,45 103.8,45 97.9,49.2 100.2,56.1 94.3,51.8 88.5,56.1 90.7,49.2 84.9,45 92.1,45 
							"/>
		</g>
	</g>
	<g>
		<g>
			<polygon class="st0" points="75.4,54.3 77.7,61.1 84.9,61.1 79,65.4 81.3,72.2 75.4,68 69.6,72.2 71.8,65.4 66,61.1 73.2,61.1 
							"/>
		</g>
	</g>
	<g>
		<g>
			<polygon class="st0" points="131.8,38.1 134,45 141.2,45 135.4,49.2 137.6,56.1 131.8,51.8 125.9,56.1 128.2,49.2 122.3,45 
				129.5,45 			"/>
		</g>
	</g>
	<g>
		<g>
			<polygon class="st0" points="112.9,54.3 115.1,61.1 122.3,61.1 116.5,65.4 118.7,72.2 112.9,68 107,72.2 109.3,65.4 103.4,61.1 
				110.6,61.1 			"/>
		</g>
	</g>
	<g>
		<g>
			<polygon class="st0" points="169.2,38.1 171.4,45 178.7,45 172.8,49.2 175,56.1 169.2,51.8 163.4,56.1 165.6,49.2 159.8,45 
				167,45 			"/>
		</g>
	</g>
	<g>
		<g>
			<polygon class="st0" points="150.3,54.3 152.5,61.1 159.8,61.1 153.9,65.4 156.2,72.2 150.3,68 144.5,72.2 146.7,65.4 
				140.9,61.1 148.1,61.1 			"/>
		</g>
	</g>
	<g>
		<g>
			<polygon class="st0" points="206.7,38.1 208.9,45 216.1,45 210.3,49.2 212.5,56.1 206.7,51.8 200.8,56.1 203,49.2 197.2,45 
				204.4,45 			"/>
		</g>
	</g>
	<g>
		<g>
			<polygon class="st0" points="187.8,54.3 190,61.1 197.2,61.1 191.4,65.4 193.6,72.2 187.8,68 181.9,72.2 184.1,65.4 178.3,61.1 
				185.5,61.1 			"/>
		</g>
	</g>
	<g>
		<g>
			<polygon class="st0" points="19.3,70.4 21.5,77.3 28.7,77.3 22.9,81.5 25.1,88.4 19.3,84.2 13.4,88.4 15.7,81.5 9.8,77.3 
				17.1,77.3 			"/>
		</g>
	</g>
	<g>
		<g>
			<polygon class="st0" points="56.9,70.4 59.1,77.3 66.3,77.3 60.5,81.5 62.7,88.4 56.9,84.2 51,88.4 53.3,81.5 47.4,77.3 
				54.6,77.3 			"/>
		</g>
	</g>
	<g>
		<g>
			<polygon class="st0" points="38,86.6 40.2,93.5 47.4,93.5 41.6,97.7 43.8,104.6 38,100.3 32.1,104.6 34.4,97.7 28.5,93.5 
				35.7,93.5 			"/>
		</g>
	</g>
	<g>
		<g>
			<polygon class="st0" points="94.3,70.4 96.6,77.3 103.8,77.3 97.9,81.5 100.2,88.4 94.3,84.2 88.5,88.4 90.7,81.5 84.9,77.3 
				92.1,77.3 			"/>
		</g>
	</g>
	<g>
		<g>
			<polygon class="st0" points="75.4,86.6 77.7,93.5 84.9,93.5 79,97.7 81.3,104.6 75.4,100.3 69.6,104.6 71.8,97.7 66,93.5 
				73.2,93.5 			"/>
		</g>
	</g>
	<g>
		<g>
			<polygon class="st0" points="131.8,70.4 134,77.3 141.2,77.3 135.4,81.5 137.6,88.4 131.8,84.2 125.9,88.4 128.2,81.5 
				122.3,77.3 129.5,77.3 			"/>
		</g>
	</g>
	<g>
		<g>
			<polygon class="st0" points="112.9,86.6 115.1,93.5 122.3,93.5 116.5,97.7 118.7,104.6 112.9,100.3 107,104.6 109.3,97.7 
				103.4,93.5 110.6,93.5 			"/>
		</g>
	</g>
	<g>
		<g>
			<polygon class="st0" points="169.2,70.4 171.4,77.3 178.7,77.3 172.8,81.5 175,88.4 169.2,84.2 163.4,88.4 165.6,81.5 
				159.8,77.3 167,77.3 			"/>
		</g>
	</g>
	<g>
		<g>
			<polygon class="st0" points="150.3,86.6 152.5,93.5 159.8,93.5 153.9,97.7 156.2,104.6 150.3,100.3 144.5,104.6 146.7,97.7 
				140.9,93.5 148.1,93.5 			"/>
		</g>
	</g>
	<g>
		<g>
			<polygon class="st0" points="206.7,70.4 208.9,77.3 216.1,77.3 210.3,81.5 212.5,88.4 206.7,84.2 200.8,88.4 203,81.5 
				197.2,77.3 204.4,77.3 			"/>
		</g>
	</g>
	<g>
		<g>
			<polygon class="st0" points="187.8,86.6 190,93.5 197.2,93.5 191.4,97.7 193.6,104.6 187.8,100.3 181.9,104.6 184.1,97.7 
				178.3,93.5 185.5,93.5 			"/>
		</g>
	</g>
	<g>
		<g>
			<polygon class="st0" points="19.3,102.8 21.5,109.6 28.7,109.6 22.9,113.9 25.1,120.7 19.3,116.5 13.4,120.7 15.7,113.9 
				9.8,109.6 17.1,109.6 			"/>
		</g>
	</g>
	<g>
		<g>
			<polygon class="st0" points="56.9,102.8 59.1,109.6 66.3,109.6 60.5,113.9 62.7,120.7 56.9,116.5 51,120.7 53.3,113.9 
				47.4,109.6 54.6,109.6 			"/>
		</g>
	</g>
	<g>
		<g>
			<polygon class="st0" points="38,118.9 40.2,125.8 47.4,125.8 41.6,130 43.8,136.9 38,132.7 32.1,136.9 34.4,130 28.5,125.8 
				35.7,125.8 			"/>
		</g>
	</g>
	<g>
		<g>
			<polygon class="st0" points="94.3,102.8 96.6,109.6 103.8,109.6 97.9,113.9 100.2,120.7 94.3,116.5 88.5,120.7 90.7,113.9 
				84.9,109.6 92.1,109.6 			"/>
		</g>
	</g>
	<g>
		<g>
			<polygon class="st0" points="75.4,118.9 77.7,125.8 84.9,125.8 79,130 81.3,136.9 75.4,132.7 69.6,136.9 71.8,130 66,125.8 
				73.2,125.8 			"/>
		</g>
	</g>
	<g>
		<g>
			<polygon class="st0" points="131.8,102.8 134,109.6 141.2,109.6 135.4,113.9 137.6,120.7 131.8,116.5 125.9,120.7 128.2,113.9 
				122.3,109.6 129.5,109.6 			"/>
		</g>
	</g>
	<g>
		<g>
			<polygon class="st0" points="112.9,118.9 115.1,125.8 122.3,125.8 116.5,130 118.7,136.9 112.9,132.7 107,136.9 109.3,130 
				103.4,125.8 110.6,125.8 			"/>
		</g>
	</g>
	<g>
		<g>
			<polygon class="st0" points="169.2,102.8 171.4,109.6 178.7,109.6 172.8,113.9 175,120.7 169.2,116.5 163.4,120.7 165.6,113.9 
				159.8,109.6 167,109.6 			"/>
		</g>
	</g>
	<g>
		<g>
			<polygon class="st0" points="150.3,118.9 152.5,125.8 159.8,125.8 153.9,130 156.2,136.9 150.3,132.7 144.5,136.9 146.7,130 
				140.9,125.8 148.1,125.8 			"/>
		</g>
	</g>
	<g>
		<g>
			<polygon class="st0" points="206.7,102.8 208.9,109.6 216.1,109.6 210.3,113.9 212.5,120.7 206.7,116.5 200.8,120.7 203,113.9 
				197.2,109.6 204.4,109.6 			"/>
		</g>
	</g>
	<g>
		<g>
			<polygon class="st0" points="187.8,118.9 190,125.8 197.2,125.8 191.4,130 193.6,136.9 187.8,132.7 181.9,136.9 184.1,130 
				178.3,125.8 185.5,125.8 			"/>
		</g>
	</g>
	<g>
		<g>
			<polygon class="st0" points="19.3,135.1 21.5,142 28.7,142 22.9,146.2 25.1,153.1 19.3,148.8 13.4,153.1 15.7,146.2 9.8,142 
				17.1,142 			"/>
		</g>
	</g>
	<g>
		<g>
			<polygon class="st0" points="56.9,135.1 59.1,142 66.3,142 60.5,146.2 62.7,153.1 56.9,148.8 51,153.1 53.3,146.2 47.4,142 
				54.6,142 			"/>
		</g>
	</g>
	<g>
		<g>
			<polygon class="st0" points="94.3,135.1 96.6,142 103.8,142 97.9,146.2 100.2,153.1 94.3,148.8 88.5,153.1 90.7,146.2 84.9,142 
				92.1,142 			"/>
		</g>
	</g>
	<g>
		<g>
			<polygon class="st0" points="131.8,135.1 134,142 141.2,142 135.4,146.2 137.6,153.1 131.8,148.8 125.9,153.1 128.2,146.2 
				122.3,142 129.5,142 			"/>
		</g>
	</g>
	<g>
		<g>
			<polygon class="st0" points="169.2,135.1 171.4,142 178.7,142 172.8,146.2 175,153.1 169.2,148.8 163.4,153.1 165.6,146.2 
				159.8,142 167,142 			"/>
		</g>
	</g>
	<g>
		<g>
			<polygon class="st0" points="206.7,135.1 208.9,142 216.1,142 210.3,146.2 212.5,153.1 206.7,148.8 200.8,153.1 203,146.2 
				197.2,142 204.4,142 			"/>
		</g>
	</g>
</g>
</svg>
